<svg width="247" height="419" viewBox="0 0 247 419" fill="none" xmlns="http://www.w3.org/2000/svg">
<path d="M152.675 132.576C171.237 139.729 180.221 160.427 173.253 178.686C173.241 178.722 173.225 178.762 173.211 178.8L165.181 199.67C158.098 218.077 137.362 227.287 118.957 220.206C100.551 213.125 91.3375 192.387 98.4213 173.982L102.855 162.458C104.031 159.402 108.3 159.19 109.738 162.131C111.57 165.88 113.955 169.405 116.858 172.542C117.841 173.605 118.151 175.125 117.632 176.476L116.068 180.54C112.719 189.244 116.889 199.141 125.56 202.575C134.316 206.044 144.237 201.68 147.612 192.91L155.643 172.042C159.012 163.286 154.634 153.5 145.915 150.145C144.766 149.704 143.691 149.443 142.873 149.29C142.295 149.183 141.75 148.942 141.281 148.586C140.813 148.231 140.434 147.771 140.175 147.243C139.08 145.009 138.845 142.309 139.843 139.716L142.359 133.177C143.018 131.463 144.816 130.489 146.619 130.839C148.685 131.239 150.711 131.82 152.675 132.576ZM169.516 88.8048C151.112 81.7229 130.375 90.9334 123.293 109.341L115.262 130.211C115.248 130.248 115.232 130.288 115.22 130.325C108.253 148.583 117.237 169.281 135.798 176.434C137.762 177.19 139.788 177.771 141.854 178.172C143.657 178.521 145.455 177.547 146.115 175.833L148.63 169.294C149.628 166.701 149.393 164.002 148.298 161.767C148.039 161.239 147.66 160.779 147.192 160.424C146.723 160.069 146.178 159.828 145.6 159.72C144.783 159.567 143.707 159.306 142.558 158.865C133.839 155.511 129.461 145.724 132.83 136.969L140.861 116.101C144.236 107.331 154.157 102.967 162.913 106.435C171.584 109.869 175.755 119.766 172.405 128.47L170.842 132.534C170.322 133.885 170.632 135.406 171.615 136.468C174.519 139.605 176.903 143.13 178.735 146.879C180.173 149.821 184.442 149.608 185.618 146.552L190.052 135.028C197.136 116.623 187.923 95.8854 169.516 88.8048Z" fill="black"/>
<path d="M233.73 326.802C250.913 309.619 250.913 281.76 233.73 264.577L154.534 185.381C137.351 168.198 109.492 168.198 92.3087 185.381L13.1127 264.577C-4.07036 281.76 -4.07037 309.619 13.1127 326.802L92.3087 405.998C109.492 423.181 137.351 423.181 154.534 405.998L233.73 326.802Z" fill="#7000B1"/>
<path d="M28.0625 271.581C29.3958 271.914 30.6667 272.164 31.875 272.331C33.0833 272.497 34.1458 272.622 35.0625 272.706C36.1458 272.831 37.1458 272.872 38.0625 272.831C39.2292 272.831 40.6875 272.727 42.4375 272.518C44.2292 272.31 46.0625 272.122 47.9375 271.956C49.8125 271.747 51.6042 271.622 53.3125 271.581C55.0625 271.497 56.4792 271.602 57.5625 271.893C58.6458 272.143 59.75 272.539 60.875 273.081C62.0417 273.581 63.1042 274.227 64.0625 275.018C65.0208 275.768 65.8125 276.664 66.4375 277.706C67.0625 278.706 67.4167 279.852 67.5 281.143C67.4583 282.768 67.0833 284.289 66.375 285.706C65.7917 286.914 64.8125 288.164 63.4375 289.456C62.0625 290.706 60.0833 291.664 57.5 292.331C58.7917 292.497 59.8958 292.789 60.8125 293.206C61.7708 293.581 62.5833 294.039 63.25 294.581C63.9583 295.081 64.5208 295.643 64.9375 296.268C65.3958 296.893 65.75 297.518 66 298.143C66.625 299.602 66.9167 301.227 66.875 303.018C66.625 305.352 66.1458 307.206 65.4375 308.581C64.7708 309.956 64 311.018 63.125 311.768C62.25 312.518 61.3542 313.039 60.4375 313.331C59.5208 313.622 58.6875 313.852 57.9375 314.018C57.1875 314.185 56.2708 314.268 55.1875 314.268C54.1042 314.268 52.9375 314.247 51.6875 314.206C50.4792 314.122 49.2292 314.06 47.9375 314.018C46.6458 313.935 45.4167 313.935 44.25 314.018C43.2917 314.102 42.125 314.185 40.75 314.268C39.5833 314.352 38.125 314.456 36.375 314.581C34.625 314.664 32.5833 314.768 30.25 314.893C30.7083 314.56 31.0833 314.185 31.375 313.768C31.7083 313.31 31.9792 312.914 32.1875 312.581C32.3958 312.164 32.5833 311.768 32.75 311.393C32.875 311.06 32.9792 310.143 33.0625 308.643C33.1458 307.143 33.2083 305.352 33.25 303.268C33.2917 301.143 33.3125 298.872 33.3125 296.456C33.3542 293.997 33.3333 291.643 33.25 289.393C33.2083 287.102 33.125 285.081 33 283.331C32.9167 281.539 32.7917 280.247 32.625 279.456C32.375 278.581 32.0417 277.685 31.625 276.768C31.2917 275.977 30.8125 275.122 30.1875 274.206C29.6042 273.289 28.8958 272.414 28.0625 271.581ZM41.25 277.956C41.25 278.122 41.2708 278.685 41.3125 279.643C41.3542 280.477 41.3958 281.768 41.4375 283.518C41.5208 285.227 41.625 287.664 41.75 290.831C42.7917 291.289 43.8125 291.539 44.8125 291.581C45.8125 291.581 46.7083 291.539 47.5 291.456C48.4167 291.331 49.2917 291.122 50.125 290.831C51.25 290.372 52.125 289.622 52.75 288.581C53.4167 287.539 53.8542 286.456 54.0625 285.331C54.3125 284.164 54.375 283.081 54.25 282.081C54.125 281.039 53.8542 280.289 53.4375 279.831C52.6458 279.122 51.6667 278.539 50.5 278.081C49.5 277.706 48.2292 277.456 46.6875 277.331C45.1875 277.164 43.375 277.372 41.25 277.956ZM40.9375 307.581C42.4792 308.372 43.8333 308.893 45 309.143C46.1667 309.393 47.1458 309.518 47.9375 309.518C48.8542 309.518 49.6458 309.393 50.3125 309.143C51.1042 308.768 51.875 308.268 52.625 307.643C53.4167 306.977 54 306.206 54.375 305.331C54.7917 304.414 54.9583 303.414 54.875 302.331C54.7917 301.206 54.3125 299.977 53.4375 298.643C52.6458 297.685 51.6875 296.935 50.5625 296.393C49.5625 295.935 48.2917 295.643 46.75 295.518C45.25 295.393 43.3958 295.747 41.1875 296.581L40.9375 307.581Z" fill="white"/>
<path d="M78.9375 273.956C81.0208 274.081 82.7708 274.185 84.1875 274.268C85.6458 274.31 86.8542 274.352 87.8125 274.393C88.8958 274.435 89.8125 274.435 90.5625 274.393C91.3125 274.352 92.3333 274.247 93.625 274.081C94.7083 273.956 96.1458 273.768 97.9375 273.518C99.7708 273.227 102.042 272.852 104.75 272.393C103.792 273.352 103.042 274.227 102.5 275.018C102 275.768 101.604 276.414 101.312 276.956C100.979 277.622 100.75 278.185 100.625 278.643C100.542 279.06 100.625 280.102 100.875 281.768C101.125 283.435 101.479 285.414 101.938 287.706C102.396 289.956 102.896 292.372 103.438 294.956C103.979 297.497 104.521 299.893 105.062 302.143C105.604 304.352 106.083 306.247 106.5 307.831C106.958 309.372 107.292 310.289 107.5 310.581C108.125 311.456 108.521 312.039 108.688 312.331C108.854 312.581 109.146 312.81 109.562 313.018C109.729 313.102 110 313.227 110.375 313.393C110.708 313.56 111.146 313.768 111.688 314.018C112.271 314.268 113 314.56 113.875 314.893C112.25 314.977 110.854 315.039 109.688 315.081C108.521 315.081 107.562 315.102 106.812 315.143C105.938 315.185 105.188 315.227 104.562 315.268C103.938 315.268 103.188 315.31 102.312 315.393C101.562 315.477 100.583 315.56 99.375 315.643C98.2083 315.727 96.8333 315.81 95.25 315.893C96.0833 315.31 96.75 314.789 97.25 314.331C97.7917 313.831 98.2083 313.414 98.5 313.081C98.8333 312.664 99.0625 312.289 99.1875 311.956C99.2708 311.581 99.3333 311.018 99.375 310.268C99.4167 309.602 99.4167 308.727 99.375 307.643C99.3333 306.518 99.2292 305.06 99.0625 303.268L82.625 304.956C82.2083 305.664 81.8958 306.289 81.6875 306.831C81.4792 307.331 81.3333 307.768 81.25 308.143C81.125 308.602 81.0833 308.977 81.125 309.268C81.2083 309.602 81.3542 309.997 81.5625 310.456C81.7708 310.872 82.0625 311.372 82.4375 311.956C82.8542 312.497 83.4583 313.143 84.25 313.893C83.2083 313.852 82.1458 313.831 81.0625 313.831C79.9792 313.831 78.9792 313.852 78.0625 313.893C76.9792 313.935 75.9167 313.977 74.875 314.018C73.8333 314.06 72.6458 314.122 71.3125 314.206C70.1875 314.289 68.875 314.393 67.375 314.518C65.8333 314.602 64.1875 314.727 62.4375 314.893C63.5208 314.393 64.4375 313.893 65.1875 313.393C65.9375 312.852 66.5625 312.352 67.0625 311.893C67.6458 311.393 68.1458 310.914 68.5625 310.456C68.8542 310.039 69.4375 309.081 70.3125 307.581C71.1875 306.039 72.1667 304.227 73.25 302.143C74.375 300.06 75.5417 297.831 76.75 295.456C78 293.081 79.125 290.852 80.125 288.768C81.125 286.643 81.9375 284.81 82.5625 283.268C83.1875 281.727 83.5 280.727 83.5 280.268C83.4167 279.727 83.2083 279.122 82.875 278.456C82.5833 277.872 82.125 277.206 81.5 276.456C80.9167 275.706 80.0625 274.872 78.9375 273.956ZM98.3125 298.643C98.0625 297.185 97.8333 295.935 97.625 294.893C97.4167 293.81 97.25 292.914 97.125 292.206C96.9583 291.372 96.8333 290.643 96.75 290.018C96.625 289.435 96.4792 288.685 96.3125 287.768C96.1458 286.977 95.9375 285.997 95.6875 284.831C95.4792 283.622 95.2083 282.185 94.875 280.518C92.5 285.268 90.6458 288.956 89.3125 291.581C88.0208 294.164 87.0833 296.06 86.5 297.268C85.7917 298.685 85.3958 299.518 85.3125 299.768L98.3125 298.643Z" fill="white"/>
<path d="M151.125 270.518C150.542 271.852 150.021 273.018 149.562 274.018C149.104 275.018 148.708 275.872 148.375 276.581C148 277.372 147.688 278.081 147.438 278.706C147.229 279.164 146.958 279.789 146.625 280.581C146.292 281.289 145.875 282.227 145.375 283.393C144.917 284.518 144.312 285.977 143.562 287.768C143.188 286.227 142.729 284.872 142.188 283.706C141.646 282.539 141.062 281.518 140.438 280.643C139.812 279.768 139.146 279.06 138.438 278.518C137.771 277.935 137.104 277.456 136.438 277.081C134.896 276.247 133.271 275.789 131.562 275.706C129.312 275.831 127.542 276.206 126.25 276.831C125 277.414 124.083 278.102 123.5 278.893C122.917 279.643 122.604 280.435 122.562 281.268C122.521 282.06 122.625 282.727 122.875 283.268C123.083 283.768 123.812 284.352 125.062 285.018C126.354 285.685 127.896 286.456 129.688 287.331C131.521 288.164 133.479 289.122 135.562 290.206C137.646 291.247 139.562 292.414 141.312 293.706C143.104 294.956 144.604 296.331 145.812 297.831C147.062 299.289 147.75 300.852 147.875 302.518C148 304.643 147.979 306.56 147.812 308.268C147.646 309.977 147.062 311.435 146.062 312.643C145.062 313.852 143.5 314.81 141.375 315.518C139.292 316.227 136.396 316.664 132.688 316.831C128.854 316.997 125.708 316.789 123.25 316.206C120.792 315.622 118.792 314.831 117.25 313.831C115.75 312.831 114.625 311.727 113.875 310.518C113.167 309.31 112.646 308.164 112.312 307.081C111.979 305.956 111.75 304.997 111.625 304.206C111.5 303.372 111.292 302.872 111 302.706C110.667 302.497 110.333 302.31 110 302.143C109.708 301.977 109.396 301.831 109.062 301.706C108.729 301.539 108.396 301.393 108.062 301.268L126.25 298.331C125.208 299.164 124.396 299.935 123.812 300.643C123.271 301.352 122.854 301.977 122.562 302.518C122.229 303.143 122 303.727 121.875 304.268C121.792 304.852 121.979 305.581 122.438 306.456C122.896 307.331 123.521 308.185 124.312 309.018C125.146 309.81 126.104 310.477 127.188 311.018C128.271 311.56 129.396 311.789 130.562 311.706C132.021 311.581 133.208 311.227 134.125 310.643C135.042 310.018 135.729 309.247 136.188 308.331C136.688 307.414 136.979 306.414 137.062 305.331C137.146 304.247 137.042 303.185 136.75 302.143C136.5 301.06 136.083 300.06 135.5 299.143C134.917 298.185 134.229 297.393 133.438 296.768C132.729 296.268 131.625 295.789 130.125 295.331C128.667 294.872 127.021 294.372 125.188 293.831C123.396 293.289 121.542 292.664 119.625 291.956C117.75 291.247 116.042 290.372 114.5 289.331C113 288.289 111.792 287.06 110.875 285.643C110 284.227 109.667 282.518 109.875 280.518C110.042 278.81 110.583 277.393 111.5 276.268C112.458 275.102 113.646 274.185 115.062 273.518C116.521 272.81 118.125 272.289 119.875 271.956C121.667 271.622 123.479 271.435 125.312 271.393C127.188 271.31 129.021 271.331 130.812 271.456C132.646 271.581 134.292 271.727 135.75 271.893C137.208 272.06 138.438 272.227 139.438 272.393C140.479 272.518 141.125 272.602 141.375 272.643C142.458 272.727 143.542 272.706 144.625 272.581C145.583 272.497 146.625 272.31 147.75 272.018C148.917 271.685 150.042 271.185 151.125 270.518Z" fill="white"/>
<path d="M150.812 273.206C152.229 273.372 153.417 273.497 154.375 273.581C155.375 273.622 156.188 273.685 156.812 273.768C157.562 273.852 158.146 273.893 158.562 273.893C159.021 273.935 159.708 273.914 160.625 273.831C161.417 273.747 162.479 273.643 163.812 273.518C165.188 273.393 166.938 273.206 169.062 272.956C168.104 273.789 167.333 274.602 166.75 275.393C166.208 276.143 165.792 276.81 165.5 277.393C165.125 278.102 164.896 278.768 164.812 279.393C164.646 280.393 164.5 281.768 164.375 283.518C164.292 285.227 164.208 287.102 164.125 289.143C164.042 291.185 164 293.289 164 295.456C164 297.622 164.021 299.685 164.062 301.643C164.146 303.56 164.271 305.268 164.438 306.768C164.646 308.268 164.896 309.352 165.188 310.018C165.604 310.768 166.042 311.518 166.5 312.268C166.917 312.893 167.417 313.539 168 314.206C168.583 314.872 169.25 315.414 170 315.831C167.542 315.706 165.583 315.643 164.125 315.643H161.875C161.208 315.643 160.354 315.685 159.312 315.768C158.438 315.852 157.333 315.935 156 316.018C154.667 316.102 153.062 316.227 151.188 316.393C152.146 315.352 152.896 314.352 153.438 313.393C153.979 312.435 154.417 311.602 154.75 310.893C155.125 310.06 155.375 309.268 155.5 308.518C155.667 307.435 155.792 306.102 155.875 304.518C156 302.893 156.083 301.164 156.125 299.331C156.167 297.456 156.167 295.56 156.125 293.643C156.125 291.685 156.083 289.81 156 288.018C155.917 286.227 155.792 284.602 155.625 283.143C155.5 281.685 155.333 280.518 155.125 279.643C155 279.102 154.75 278.497 154.375 277.831C154.042 277.247 153.583 276.581 153 275.831C152.458 275.039 151.729 274.164 150.812 273.206Z" fill="white"/>
<path d="M169.062 270.643C171.854 270.977 174.271 271.227 176.312 271.393C178.354 271.518 180.042 271.622 181.375 271.706C182.917 271.789 184.208 271.81 185.25 271.768C186.333 271.727 187.812 271.622 189.688 271.456C191.271 271.331 193.354 271.164 195.938 270.956C198.521 270.706 201.75 270.372 205.625 269.956C205.667 270.914 205.688 271.852 205.688 272.768C205.729 273.643 205.771 274.414 205.812 275.081C205.854 275.872 205.875 276.602 205.875 277.268C205.875 277.977 205.833 278.872 205.75 279.956C205.667 280.872 205.521 282.039 205.312 283.456C205.146 284.831 204.875 286.477 204.5 288.393C203.917 286.143 203.354 284.331 202.812 282.956C202.271 281.539 201.771 280.414 201.312 279.581C200.812 278.622 200.312 277.893 199.812 277.393C199.271 277.018 198.625 276.706 197.875 276.456C197.208 276.247 196.354 276.081 195.312 275.956C194.312 275.831 193.125 275.852 191.75 276.018C191.542 281.518 191.396 285.977 191.312 289.393C191.229 292.81 191.167 295.477 191.125 297.393C191.083 299.685 191.062 301.331 191.062 302.331C191.104 303.747 191.333 305.143 191.75 306.518C192.083 307.685 192.625 308.893 193.375 310.143C194.125 311.393 195.208 312.497 196.625 313.456H189C188.292 313.456 187.417 313.497 186.375 313.581C185.5 313.664 184.375 313.747 183 313.831C181.667 313.914 180.104 314.06 178.312 314.268C178.938 313.185 179.438 312.206 179.812 311.331C180.188 310.456 180.479 309.706 180.688 309.081C180.938 308.331 181.125 307.664 181.25 307.081C181.292 306.247 181.396 304.56 181.562 302.018C181.604 300.977 181.646 299.685 181.688 298.143C181.771 296.602 181.854 294.768 181.938 292.643C182.062 290.518 182.167 288.081 182.25 285.331C182.375 282.539 182.5 279.393 182.625 275.893C181.875 275.685 181.167 275.706 180.5 275.956C179.833 276.164 179.25 276.435 178.75 276.768C178.167 277.185 177.604 277.685 177.062 278.268C176.521 278.977 175.917 279.893 175.25 281.018C174.667 281.977 174 283.247 173.25 284.831C172.5 286.372 171.646 288.289 170.688 290.581C170.479 288.164 170.333 286.185 170.25 284.643C170.167 283.06 170.104 281.831 170.062 280.956C170.021 279.914 170 279.143 170 278.643C170 278.185 169.958 277.581 169.875 276.831C169.792 276.206 169.688 275.393 169.562 274.393C169.438 273.352 169.271 272.102 169.062 270.643Z" fill="white"/>
<path d="M155.994 47.5136C175.509 43.6562 194.153 56.3644 198.006 75.524C198.015 75.5612 198.023 75.6036 198.031 75.6428L202.379 97.5778C206.213 116.924 193.593 135.781 174.25 139.615C154.905 143.451 136.045 130.831 132.213 111.485L129.812 99.3735C129.175 96.1616 132.672 93.7035 135.458 95.4238C139.008 97.6162 142.906 99.3246 147.036 100.428C148.434 100.801 149.508 101.922 149.789 103.341L150.636 107.613C152.449 116.761 161.258 122.905 170.424 121.181C179.68 119.441 185.741 110.455 183.913 101.238L179.568 79.3041C177.744 70.1022 168.818 64.1626 159.654 65.9789C158.448 66.2192 157.398 66.5727 156.625 66.8798C156.079 67.0975 155.49 67.1846 154.904 67.1341C154.318 67.0835 153.752 66.8968 153.251 66.5887C151.133 65.2834 149.493 63.1263 148.953 60.4007L147.591 53.5283C147.234 51.7262 148.234 49.9437 149.946 49.2765C151.906 48.5126 153.93 47.9227 155.994 47.5136ZM146.875 1.50954C127.531 5.34349 114.911 24.1997 118.745 43.5463L123.093 65.4813C123.101 65.5205 123.109 65.5629 123.118 65.6001C126.971 84.7596 145.616 97.4679 165.13 93.6105C167.194 93.2014 169.218 92.6116 171.178 91.8477C172.89 91.1805 173.89 89.3977 173.533 87.5959L172.171 80.7234C171.631 77.9979 169.991 75.8408 167.873 74.5355C167.372 74.2274 166.806 74.0407 166.22 73.9901C165.634 73.9396 165.045 74.0267 164.499 74.2444C163.725 74.5515 162.676 74.905 161.47 75.1453C152.306 76.9616 143.38 71.022 141.556 61.8201L137.21 39.8864C135.383 30.6688 141.444 21.6835 150.7 19.9428C159.866 18.2194 168.675 24.3627 170.488 33.511L171.335 37.7827C171.616 39.2026 172.69 40.3229 174.088 40.6963C178.218 41.7996 182.116 43.508 185.666 45.7004C188.452 47.4205 191.948 44.9626 191.312 41.7507L188.911 29.6388C185.079 10.2935 166.219 -2.32644 146.875 1.50954Z" fill="black"/>
</svg>
